<svg width="158" height="24" viewBox="0 0 158 24" fill="none" xmlns="http://www.w3.org/2000/svg">
<path d="M0 15.0043C0 10.003 3.9519 6.04403 8.82349 6.04403C12.8095 6.04403 15.9093 8.30145 17.1702 11.9137H14.3084C13.3205 9.79498 11.4126 8.68358 8.82349 8.68358C5.31449 8.68358 2.69128 11.4274 2.69128 15.0047C2.69128 18.5821 5.31449 21.3259 8.82349 21.3259C11.3786 21.3259 13.3205 20.3533 14.3084 18.1306H17.1702C15.9096 21.708 12.8095 23.9653 8.82349 23.9653C3.95183 23.9653 0 20.006 0 15.005" fill="#282828"/>
<path d="M28.2067 21.3606C31.6135 21.3606 34.4412 18.6862 34.4412 15.0047C34.4412 11.1842 31.6476 8.64874 28.2067 8.64874C24.766 8.64874 21.9723 11.3925 21.9723 15.0047C21.9723 18.6515 24.766 21.3606 28.2067 21.3606ZM19.2812 15.0047C19.2812 10.0033 23.267 6.04367 27.9683 6.04367C30.8642 6.04367 33.2147 7.39811 34.4753 9.16938V6.42566H37.0644V23.5834H34.4753V20.8395C33.2147 22.611 30.8642 23.9653 27.9683 23.9653C23.2669 23.9653 19.2812 20.006 19.2812 15.005" fill="#282828"/>
<path d="M40.6399 22.0552V19.068C42.9905 20.8394 45.4093 21.4298 47.6577 21.4298C49.6337 21.4298 51.814 21.0826 51.814 18.8597C51.814 17.0884 49.9744 16.4286 47.2831 16.1507C43.6378 15.7686 40.6399 14.5878 40.6399 11.0452C40.6399 7.2595 44.0125 6.04386 47.3853 6.04386C49.0547 6.04386 51.2689 6.2869 52.9725 7.43307V10.1768C51.3371 9.13494 49.4973 8.57924 47.3853 8.57924C45.0006 8.57924 43.5016 9.23911 43.5016 11.0104C43.5016 12.7817 45.1367 13.3374 47.4194 13.5806C51.2009 13.9625 54.4033 14.8656 54.4033 18.9639C54.4033 22.2287 51.3711 24 47.3853 24C45.4093 24 42.6158 23.5137 40.6399 22.0552" fill="#282828"/>
<path d="M60.4641 11.4266V18.3034C60.4641 21.1516 62.2356 21.9157 65.6083 21.1168V23.5479C60.873 24.5551 57.8748 22.8187 57.8748 18.5466V11.4266H60.4641ZM57.875 1.31997H60.4641V6.4255H65.3698V9.03043H57.8748L57.875 1.31997Z" fill="#282828"/>
<path d="M82.2011 13.0592C81.4858 10.1765 79.2033 8.68311 76.4437 8.68311C73.7524 8.68311 71.4017 10.4544 70.6181 13.0592H82.2011ZM76.5118 6.04356C81.3836 6.04356 85.1651 9.89868 85.1651 14.6224C85.1651 15.074 85.131 15.4213 85.097 15.595H70.3797C70.6522 18.9638 73.2413 21.3257 76.5459 21.3257C79.4077 21.3257 81.2473 20.0059 82.0648 18.1303H84.8925C83.8364 21.7078 80.3274 23.9651 76.512 23.9651C71.4701 23.9651 67.6548 19.9017 67.6548 15.0049C67.6548 10.0035 71.5725 6.04456 76.512 6.04456" fill="#282828"/>
<path d="M91.125 8.7738e-05V19.1022C91.125 21.325 92.9304 21.8459 94.8383 21.1167V23.5478C91.5337 24.4857 88.5356 23.0269 88.5356 19.3453V0.00015831L91.125 8.7738e-05Z" fill="#282828"/>
<path d="M104.852 21.3606C108.259 21.3606 111.087 18.6862 111.087 15.0047C111.087 11.1842 108.293 8.64874 104.852 8.64874C101.412 8.64874 98.6181 11.3925 98.6181 15.0047C98.6181 18.6515 101.412 21.3606 104.852 21.3606ZM95.927 15.0047C95.927 10.0033 99.9128 6.04367 104.614 6.04367C107.51 6.04367 109.86 7.39811 111.121 9.16938V6.42566H113.71V23.5834H111.121V20.8395C109.86 22.611 107.51 23.9653 104.614 23.9653C99.9127 23.9653 95.927 20.006 95.927 15.005" fill="#282828"/>
<path d="M121.034 1.35508V6.42583H126.178V9.03076H121.034V18.3036C121.034 21.1517 122.976 21.9159 126.348 21.117V23.5481C121.613 24.5553 118.445 22.8188 118.445 18.5467V1.35457L121.034 1.35508Z" fill="#282828"/>
<path d="M132.616 1.35508V6.42583H137.76V9.03076H132.616V18.3036C132.616 21.1517 134.558 21.9159 137.931 21.117V23.5481C133.195 24.5553 130.027 22.8188 130.027 18.5467V1.35457L132.616 1.35508Z" fill="#282828"/>
<path d="M149.142 21.3255C152.651 21.3255 155.308 18.5817 155.308 15.0044C155.308 11.4271 152.651 8.68327 149.142 8.68327C145.667 8.68327 143.01 11.4271 143.01 15.0044C143.01 18.5817 145.667 21.3255 149.142 21.3255ZM140.319 15.0044C140.319 10.003 144.271 6.04408 149.142 6.04408C154.048 6.04408 158 10.0034 158 15.0044C158 20.0054 154.048 23.9647 149.142 23.9647C144.271 23.9647 140.319 20.0054 140.319 15.0044Z" fill="#282828"/>
</svg>
