<svg width="89" height="18" viewBox="0 0 89 18" fill="none" xmlns="http://www.w3.org/2000/svg">
<path d="M1.06762e-05 8.9725C-0.00355049 6.60366 0.883917 4.32995 2.46792 2.64965C4.05192 0.969359 6.20326 0.0195427 8.45045 0.00836314H8.51057C10.2771 -0.0556282 12.0165 0.48066 13.4719 1.5381C14.9273 2.59554 16.0217 4.11811 16.5936 5.88118H13.848C12.8928 3.76865 11.049 2.64902 8.54397 2.64902C6.94944 2.64902 5.42023 3.31672 4.29273 4.50525C3.16523 5.69377 2.5318 7.30576 2.5318 8.98658C2.5318 10.6674 3.16523 12.2794 4.29273 13.4679C5.42023 14.6564 6.94944 15.3242 8.54397 15.3242C11.0156 15.3242 12.8928 14.3524 13.848 12.1272H16.6203C16.0417 13.8831 14.9446 15.3973 13.49 16.4479C12.0353 17.4985 10.2995 18.0301 8.53729 17.9648C7.42005 17.9713 6.31259 17.7453 5.27838 17.2997C4.24417 16.8542 3.30354 16.1978 2.51043 15.3683C1.71732 14.5388 1.08731 13.5525 0.656519 12.4658C0.22573 11.3792 0.00263082 10.2136 1.06762e-05 9.03588V8.9725Z" fill="#282828"/>
<path d="M35.378 10.261H21.3496C21.5834 13.4227 24.2488 15.331 27.3618 15.331C29.4727 15.331 31.2563 14.5705 32.2383 13.2185H34.9104C33.6946 16.169 30.6885 17.9787 27.295 17.9787C22.4118 17.9787 18.6575 14.3593 18.6575 9.25401C18.6501 8.78233 18.6837 8.31092 18.7577 7.84566H32.7861C32.6543 6.38234 31.9987 5.02689 30.9526 4.05498C29.9065 3.08306 28.5484 2.56768 27.1547 2.61365C26.0644 2.55206 24.9809 2.82874 24.0381 3.40946C23.0954 3.99018 22.3349 4.84946 21.8506 5.88102H19.1385C19.7492 4.14606 20.8521 2.65154 22.2972 1.60074C23.7423 0.549945 25.4593 -0.00611418 27.2148 0.0082043C31.764 0.0082043 35.4248 4.23325 35.4248 8.97234C35.4259 9.40288 35.4036 9.83313 35.358 10.261" fill="#282828"/>
<path d="M38.4043 10.226V0.367554H40.9428V10.1908C40.9428 13.4582 42.8266 15.4017 45.8594 15.4017C48.8922 15.4017 50.7693 13.4582 50.7693 10.1908V0.388679H53.3078V10.2471C53.3078 15.0425 50.0813 17.993 45.8594 17.993C41.6375 17.993 38.4043 15.0707 38.4043 10.2471" fill="#282828"/>
<path d="M56.4075 16.0283V13.0426C58.3726 14.5991 60.7701 15.4283 63.2279 15.4016C65.1385 15.4016 67.2361 15.0566 67.2361 12.8314C67.2361 11.0568 65.4524 10.402 62.8472 10.1203C59.3267 9.74004 56.4208 8.55702 56.4208 5.01503C56.4208 1.22657 59.6874 0.00834698 62.9474 0.00834698C64.8411 -0.0710494 66.7173 0.417293 68.3583 1.4167V4.16297C66.7381 3.09263 64.8593 2.53763 62.9474 2.5645C60.6427 2.5645 59.1931 3.22642 59.1931 5.00094C59.1931 6.77546 60.7763 7.32472 62.9808 7.57118C66.6415 7.95143 69.7411 8.85278 69.7411 12.9581C69.7411 16.2255 66.8085 18 62.9474 18C61.0368 18 58.3314 17.5071 56.4208 16.0494" fill="#282828"/>
<path d="M86.5082 8.9724C86.5514 7.33978 85.9786 5.75575 84.9154 4.5677C83.8522 3.37964 82.3854 2.68454 80.8368 2.63483H80.476C79.2869 2.63483 78.1246 3.00653 77.1359 3.70291C76.1472 4.39929 75.3766 5.38908 74.9215 6.54712C74.4665 7.70516 74.3474 8.97943 74.5794 10.2088C74.8114 11.4382 75.384 12.5674 76.2248 13.4537C77.0656 14.3401 78.1369 14.9437 79.3031 15.1882C80.4694 15.4327 81.6782 15.3072 82.7768 14.8276C83.8754 14.3479 84.8143 13.5356 85.475 12.4934C86.1356 11.4512 86.4882 10.2259 86.4882 8.9724H86.5082ZM71.7918 8.9724C71.7846 6.61092 72.6646 4.34247 74.2392 2.66277C75.8139 0.983077 77.9553 0.0287214 80.1955 0.0082634C81.4043 -0.0264071 82.604 0.238412 83.6981 0.781428C84.7922 1.32444 85.7501 2.1305 86.4949 3.1348V0.388518H89V17.5563H86.5416V14.81C85.7969 15.8143 84.8389 16.6204 83.7448 17.1634C82.6508 17.7064 81.4511 17.9712 80.2422 17.9365C78.0021 17.9161 75.8607 16.9617 74.286 15.282C72.7113 13.6023 71.8314 11.3339 71.8386 8.9724" fill="#282828"/>
</svg>
