<svg width="74" height="18" viewBox="0 0 74 18" fill="none" xmlns="http://www.w3.org/2000/svg">
<path d="M6.26934 0.40686H0V2.98474H6.17209C9.37484 2.98474 12.785 4.37747 12.785 9.01095C12.785 13.6444 9.38132 15.0372 6.17209 15.0372H2.5609V5.52914H0V17.615H6.26934C11.0281 17.615 15.4497 14.9367 15.4497 9.01095C15.4497 3.08518 11.0281 0.40686 6.26934 0.40686Z" fill="#282828"/>
<path d="M26.6268 0.0253374C25.4842 0.0108289 24.3501 0.228886 23.2891 0.667058C22.2281 1.10523 21.2611 1.75494 20.4432 2.57908C19.6254 3.40323 18.9727 4.38567 18.5225 5.47032C18.0723 6.55497 17.8333 7.72058 17.8193 8.90061C17.8052 10.0806 18.0164 11.252 18.4406 12.3477C18.8649 13.4435 19.494 14.4422 20.292 15.2869C21.0899 16.1315 22.0412 16.8056 23.0914 17.2706C24.1417 17.7355 25.2703 17.9823 26.4129 17.9968H26.6268C30.4066 17.9968 33.8751 15.7337 34.9254 12.1447H32.1441C31.3337 14.0329 29.5119 15.3721 26.6787 15.3721C25.1385 15.4136 23.6425 14.838 22.5041 13.7658C21.3656 12.6937 20.673 11.2081 20.5714 9.62041H35.1459C35.1935 9.29919 35.2152 8.97444 35.2107 8.64952C35.1901 6.34675 34.2869 4.14622 32.6987 2.52981C31.1105 0.913398 28.9668 0.0128395 26.737 0.0253374H26.6268ZM20.7919 7.06262C21.1667 5.78046 21.9331 4.65794 22.9766 3.86267C24.0201 3.06739 25.2846 2.64203 26.5814 2.65009C29.3109 2.65009 31.5736 4.14995 32.2802 7.04253L20.7919 7.06262Z" fill="#282828"/>
<path d="M46.0377 2.65001C48.6311 2.65001 50.4918 3.76821 51.4642 5.89077H54.3039C53.7195 4.12385 52.6005 2.59783 51.112 1.53804C49.6235 0.47824 47.8446 -0.0591647 46.0377 0.0051711C43.7302 0.00517113 41.5172 0.951882 39.8855 2.63704C38.2538 4.32219 37.3372 6.60775 37.3372 8.99092C37.3372 11.3741 38.2538 13.6597 39.8855 15.3448C41.5172 17.03 43.7302 17.9767 46.0377 17.9767C47.8406 18.0433 49.6166 17.5108 51.1045 16.4573C52.5925 15.4039 53.7139 13.8852 54.3039 12.1246H51.4642C50.4918 14.3743 48.5662 15.372 46.0377 15.372C44.4094 15.372 42.8477 14.704 41.6963 13.5148C40.5449 12.3257 39.8981 10.7128 39.8981 9.0311C39.8981 7.34938 40.5449 5.73655 41.6963 4.54739C42.8477 3.35824 44.4094 2.69018 46.0377 2.69018V2.65001Z" fill="#282828"/>
<path d="M71.4392 0.407074V3.15904C70.6781 2.15143 69.6983 1.34279 68.5788 0.79844C67.4594 0.254089 66.2316 -0.0107164 64.9948 0.0254137C62.6872 0.0254137 60.4742 0.972124 58.8425 2.65728C57.2109 4.34244 56.2942 6.628 56.2942 9.01117C56.2942 11.3943 57.2109 13.6799 58.8425 15.3651C60.4742 17.0502 62.6872 17.9969 64.9948 17.9969C66.2315 18.0325 67.4591 17.7675 68.5785 17.2232C69.6979 16.6789 70.6778 15.8705 71.4392 14.8633V17.6153H74.0001V0.407074H71.4392ZM65.2282 15.3722C63.6637 15.2673 62.1966 14.5515 61.1245 13.3701C60.0525 12.1887 59.4559 10.6303 59.4559 9.01117C59.4559 7.39206 60.0525 5.83363 61.1245 4.65224C62.1966 3.47086 63.6637 2.75506 65.2282 2.65016C66.0171 2.6252 66.803 2.76148 67.5407 3.05119C68.2785 3.3409 68.9535 3.77831 69.5271 4.3383C70.1006 4.89829 70.5613 5.56982 70.8828 6.31429C71.2043 7.05876 71.3801 7.8615 71.4003 8.67638C71.4067 8.80351 71.4067 8.93091 71.4003 9.05804C71.4072 10.7164 70.7795 12.3104 69.6539 13.493C68.5283 14.6756 66.9958 15.351 65.3902 15.3722H65.2282Z" fill="#282828"/>
</svg>
