<svg width="125" height="25" viewBox="0 0 125 25" fill="none" xmlns="http://www.w3.org/2000/svg">
<path d="M6.76811 21.7366C10.2767 21.7366 14.0131 20.2024 14.0131 15.0983C14.0131 9.99422 10.2838 8.46004 6.76811 8.46004H2.81115V21.7366H6.76811ZM0 5.64246H6.87486C12.0915 5.64246 16.9523 8.5928 16.9523 15.1057C16.9523 21.6186 12.0915 24.5763 6.87486 24.5763H0V5.64246Z" fill="#282828"/>
<path d="M20.2615 16.485V5.64246H23.1082V16.4481C23.1082 20.0475 25.2433 22.1939 28.6166 22.1939C31.99 22.1939 34.1251 20.0475 34.1251 16.4481V5.64246H36.9718V16.485C36.9718 21.7735 33.3493 24.9967 28.6166 24.9967C23.8839 24.9967 20.2686 21.7808 20.2686 16.485" fill="#282828"/>
<path d="M41.6763 5.6424H44.4874V9.28608C45.6759 6.94793 47.8893 5.59814 50.9566 5.59814V8.54849C47.6686 8.47473 44.4874 10.3925 44.4874 15.5629V24.5689H41.6763V5.6424Z" fill="#282828"/>
<path d="M68.9763 15.1058C69.0029 14.2116 68.8592 13.3208 68.5534 12.4843C68.2476 11.6478 67.7857 10.8819 67.1942 10.2305C66.6026 9.57903 65.893 9.05481 65.1059 8.68776C64.3187 8.32071 63.4695 8.11804 62.6067 8.09133H62.2011C60.8628 8.09278 59.5549 8.50541 58.4429 9.27706C57.3308 10.0487 56.4644 11.1447 55.9532 12.4266C55.4421 13.7084 55.3091 15.1186 55.571 16.4787C55.833 17.8389 56.4781 19.0881 57.4249 20.0683C58.3718 21.0486 59.5777 21.7159 60.8904 21.986C62.2031 22.256 63.5636 22.1167 64.7999 21.5856C66.0362 21.0544 67.0928 20.1554 67.8362 19.002C68.5796 17.8487 68.9763 16.4928 68.9763 15.1058ZM52.5364 15.1058C52.5306 12.5049 53.5157 10.0067 55.2776 8.15454C57.0394 6.30234 59.4355 5.24583 61.9449 5.21474C63.3012 5.17728 64.6472 5.47006 65.8745 6.06957C67.1019 6.66908 68.1765 7.55859 69.0119 8.66664V5.64254H71.823V24.5764H69.0119V21.5449C68.1765 22.653 67.1019 23.5425 65.8745 24.142C64.6472 24.7415 63.3012 25.0343 61.9449 24.9968C59.4349 24.9676 57.0377 23.9117 55.2755 22.0591C53.5133 20.2065 52.5288 17.7073 52.5364 15.1058Z" fill="#282828"/>
<path d="M79.7725 11.1597V18.7494C79.7725 21.8916 81.694 22.7324 85.3592 21.8547V24.5321C80.2137 25.6459 76.9613 23.7282 76.9613 19.015V11.1597H79.7725ZM79.7725 0V5.64254H85.0959V8.51912H76.9542V0H79.7725Z" fill="#282828"/>
<path d="M90.7894 12.9593H103.365C102.589 9.78034 100.112 8.12815 97.1163 8.12815C95.7015 8.12489 94.3231 8.59257 93.1841 9.46233C92.0451 10.3321 91.2056 11.5579 90.7894 12.9593ZM106.511 15.7548H90.5332C90.6413 17.5032 91.3998 19.1399 92.6489 20.3203C93.8981 21.5007 95.5404 22.1327 97.2302 22.0833C100.333 22.0833 102.333 20.6081 103.223 18.5576H106.29C105.144 22.5037 101.308 24.9967 97.1875 24.9967C94.6563 24.9967 92.2289 23.9547 90.4391 22.0997C88.6493 20.2448 87.6438 17.729 87.6438 15.1057C87.6438 12.4824 88.6493 9.96663 90.4391 8.1117C92.2289 6.25677 94.6563 5.21468 97.1875 5.21468C99.628 5.17505 101.985 6.13655 103.744 7.88973C105.504 9.6429 106.524 12.0457 106.582 14.5747V14.6779C106.59 15.0384 106.566 15.3989 106.511 15.7548Z" fill="#282828"/>
<path d="M114.645 14.9508L107.913 5.64246H111.279L116.346 12.738L121.449 5.64246H124.815L118.09 14.9582L125 24.5468H121.634L116.346 17.1709L111.058 24.5468H107.692L114.645 14.9508Z" fill="#282828"/>
</svg>
