<svg width="137" height="25" viewBox="0 0 137 25" fill="none" xmlns="http://www.w3.org/2000/svg">
<path d="M0 21.9516H6.25322C9.49737 21.9516 12.9699 20.5482 12.9699 15.7765C12.9699 11.0048 9.51752 9.60136 6.25322 9.60136H2.6195V19.3483H0V6.95587H6.35397C11.1765 6.95587 15.6498 9.70662 15.6498 15.7765C15.6498 21.8464 11.1967 24.5901 6.37412 24.5901H0V21.9516Z" fill="#282828"/>
<path d="M18.6588 17.0606V6.95581H21.285V17.0185C21.285 20.3797 23.2329 22.3726 26.383 22.3726C29.5331 22.3726 31.4742 20.3797 31.4742 17.0185V6.95581H34.1004V17.0606C34.1004 21.9726 30.7421 24.99 26.3763 24.99C22.0104 24.99 18.6521 21.9937 18.6521 17.0606" fill="#282828"/>
<path d="M38.0095 6.95579H40.6089V10.3451C41.697 8.16977 43.7523 6.88562 46.5867 6.88562V9.6925C43.5441 9.62233 40.6089 11.4047 40.6089 16.2255V24.6462H38.0095V6.95579Z" fill="#282828"/>
<path d="M48.0241 15.7764C48.0169 13.3463 48.9318 11.0123 50.5684 9.28541C52.2049 7.55853 54.4298 6.57955 56.7558 6.56285C58.0087 6.52831 59.2519 6.80105 60.3857 7.35919C61.5194 7.91732 62.5122 8.74531 63.2844 9.77673V6.96985H65.877V24.5901H63.2642V21.7832C62.4921 22.8146 61.4993 23.6426 60.3655 24.2007C59.2317 24.7589 57.9885 25.0316 56.7356 24.9971C54.4102 24.9822 52.1854 24.0048 50.5486 22.279C48.9119 20.5533 47.9968 18.2199 48.0039 15.7905L48.0241 15.7764ZM63.2038 15.7905C63.2315 14.9581 63.1015 14.1283 62.821 13.3487C62.5406 12.569 62.1153 11.8551 61.5697 11.2479C61.0241 10.6407 60.3689 10.1522 59.6418 9.8106C58.9148 9.469 58.1303 9.28102 57.3334 9.25746H56.9505C55.7138 9.25746 54.5048 9.64062 53.4764 10.3585C52.4481 11.0763 51.6466 12.0966 51.1733 13.2904C50.7 14.4842 50.5762 15.7977 50.8175 17.065C51.0588 18.3323 51.6543 19.4964 52.5289 20.41C53.4034 21.3237 54.5176 21.9459 55.7306 22.198C56.9436 22.4501 58.2009 22.3207 59.3436 21.8262C60.4862 21.3317 61.4628 20.4944 62.1499 19.42C62.837 18.3457 63.2038 17.0826 63.2038 15.7905Z" fill="#282828"/>
<path d="M70.1423 6.16991C70.1423 1.63679 73.2857 -0.503457 77.7255 0.100023V2.56306C74.5149 2.09993 72.735 3.26478 72.735 6.21201V6.95584H77.2419V9.41888H72.7618V24.5971H70.1692L70.1423 6.16991Z" fill="#282828"/>
<path d="M82.9307 0.352661V20.0008C82.9307 22.2814 84.7442 22.8077 86.6584 22.0709V24.569C83.3404 25.5304 80.3313 24.0357 80.3313 20.2464V0.352661H82.9307Z" fill="#282828"/>
<path d="M87.7465 15.7766C87.7359 13.9446 88.2455 12.1505 89.2109 10.6212C90.1762 9.09182 91.554 7.89588 93.17 7.18458C94.7859 6.47328 96.5675 6.27858 98.2893 6.62509C100.011 6.97161 101.596 7.84377 102.843 9.1313C104.091 10.4188 104.945 12.0639 105.297 13.8585C105.65 15.653 105.485 17.5165 104.824 19.2133C104.163 20.91 103.035 22.3638 101.583 23.3909C100.131 24.4179 98.4197 24.972 96.6662 24.9832H96.5991C94.2683 24.9962 92.0276 24.0434 90.3682 22.3334C88.7088 20.6234 87.766 18.2958 87.7465 15.8608V15.7906V15.7766ZM102.785 15.7906C102.777 14.5176 102.409 13.2755 101.726 12.2208C101.044 11.1662 100.078 10.3462 98.95 9.86412C97.8222 9.38206 96.583 9.25953 95.3887 9.51196C94.1944 9.76438 93.0983 10.3805 92.2385 11.2826C91.3787 12.1848 90.7938 13.3326 90.5573 14.5814C90.3209 15.8303 90.4435 17.1243 90.9098 18.3005C91.3761 19.4767 92.1652 20.4823 93.1776 21.1908C94.1901 21.8992 95.3805 22.2787 96.5991 22.2815C98.2078 22.3059 99.7602 21.663 100.916 20.4936C102.072 19.3243 102.737 17.7239 102.765 16.0432V15.7976" fill="#282828"/>
<path d="M107.668 15.7764C107.658 13.9442 108.167 12.1498 109.133 10.6203C110.099 9.09078 111.477 7.89483 113.093 7.18373C114.709 6.47263 116.491 6.27833 118.213 6.6254C119.935 6.97248 121.52 7.84534 122.767 9.13357C124.015 10.4218 124.868 12.0675 125.22 13.8626C125.572 15.6576 125.406 17.5213 124.744 19.218C124.081 20.9146 122.952 22.3679 121.499 23.3941C120.047 24.4203 118.335 24.9733 116.581 24.983H116.521C115.366 24.9913 114.221 24.762 113.151 24.308C112.082 23.8541 111.108 23.1844 110.286 22.3374C109.464 21.4903 108.81 20.4823 108.36 19.371C107.911 18.2597 107.676 17.0669 107.668 15.8606V15.7905V15.7764ZM122.707 15.7905C122.699 14.5174 122.33 13.2753 121.648 12.2207C120.965 11.166 119.999 10.346 118.872 9.86398C117.744 9.38192 116.505 9.25938 115.31 9.51181C114.116 9.76424 113.02 10.3803 112.16 11.2825C111.3 12.1846 110.715 13.3324 110.479 14.5813C110.243 15.8302 110.365 17.1242 110.831 18.3003C111.298 19.4765 112.087 20.4822 113.099 21.1906C114.112 21.8991 115.302 22.2786 116.521 22.2814C118.134 22.3095 119.691 21.6675 120.851 20.4965C122.011 19.3254 122.678 17.7211 122.707 16.0361V15.7905Z" fill="#282828"/>
<path d="M128.423 6.95579H131.022V10.3451C132.117 8.16977 134.166 6.88562 137 6.88562V9.6925C133.957 9.62233 131.022 11.4047 131.022 16.2255V24.6462H128.43L128.423 6.95579Z" fill="#282828"/>
</svg>
