<svg width="90" height="29" viewBox="0 0 90 29" fill="none" xmlns="http://www.w3.org/2000/svg">
<path d="M47.6207 20.8846C46.3177 20.8832 45.0444 20.5033 43.9617 19.7929C42.879 19.0825 42.0355 18.0735 41.5379 16.8935C41.0402 15.7134 40.9107 14.4153 41.1658 13.1631C41.4209 11.911 42.049 10.761 42.9709 9.85864C43.8927 8.95625 45.0669 8.34194 46.345 8.09335C47.623 7.84476 48.9476 7.97305 50.1513 8.462C51.3549 8.95095 52.3837 9.77862 53.1074 10.8404C53.8312 11.9021 54.2175 13.1503 54.2175 14.4272C54.2184 15.2761 54.0484 16.1167 53.7171 16.9011C53.3858 17.6854 52.8998 18.3979 52.287 18.9979C51.6741 19.5978 50.9465 20.0732 50.1458 20.397C49.345 20.7208 48.4869 20.8865 47.6207 20.8846ZM54.2246 0V8.18784C53.3693 7.24213 52.3196 6.48436 51.1444 5.96428C49.9691 5.44421 48.6949 5.17358 47.4054 5.17016C44.9 5.17016 42.4972 6.14545 40.7257 7.88148C38.9541 9.61752 37.9589 11.9721 37.9589 14.4272C37.9589 16.8823 38.9541 19.2369 40.7257 20.9729C42.4972 22.709 44.9 23.6843 47.4054 23.6843C48.6946 23.6835 49.9691 23.4148 51.1446 22.8958C52.3201 22.3768 53.3699 21.6194 54.2246 20.6736V23.4381H57.0959V0H54.2246Z" fill="#282828"/>
<path d="M80.5248 20.8848C79.2218 20.8834 77.9485 20.5035 76.8658 19.7931C75.7831 19.0827 74.9396 18.0737 74.4419 16.8936C73.9443 15.7136 73.8148 14.4154 74.0699 13.1633C74.3249 11.9111 74.9531 10.7612 75.875 9.8588C76.7968 8.95641 77.971 8.3421 79.249 8.09351C80.5271 7.84492 81.8517 7.97321 83.0553 8.46216C84.259 8.95111 85.2877 9.77878 86.0115 10.8405C86.7352 11.9023 87.1215 13.1505 87.1215 14.4274C87.1215 15.276 86.9509 16.1162 86.6193 16.9001C86.2876 17.684 85.8016 18.3962 85.189 18.9959C84.5763 19.5957 83.849 20.0712 83.0487 20.3953C82.2484 20.7194 81.3907 20.8857 80.5248 20.8848ZM87.1287 5.40948V8.22317C86.2753 7.27753 85.2268 6.52017 84.0525 6.00118C82.8782 5.48218 81.6048 5.21338 80.3166 5.21252C77.8573 5.27898 75.5214 6.28305 73.8059 8.01117C72.0903 9.7393 71.1305 12.0551 71.1305 14.4661C71.1305 16.877 72.0903 19.1928 73.8059 20.9209C75.5214 22.6491 77.8573 23.6531 80.3166 23.7196C81.6048 23.7183 82.878 23.4493 84.0522 22.9303C85.2265 22.4113 86.275 21.6542 87.1287 20.7089V23.4734H90V5.38838L87.1287 5.40948Z" fill="#282828"/>
<path d="M60.7848 23.4734V5.38136H63.6561V7.96996C64.4268 7.0529 65.4027 6.32208 66.5081 5.83414C67.6135 5.3462 68.8187 5.11425 70.0303 5.15627V7.96996C66.0751 7.96996 63.7709 9.90437 63.6561 13.1331V23.4734H60.7848Z" fill="#282828"/>
<path d="M14.299 12.7039H2.87128V5.38831H0V23.4663H2.87128V15.2925H14.299V23.4663H17.1702V5.38831H14.299V12.7039Z" fill="#282828"/>
<path d="M26.7892 23.9445C26.5347 24.4872 26.1315 24.95 25.6246 25.2816C25.1177 25.6131 24.5269 25.8004 23.9179 25.8226H21.9583V28.6363H23.8318C25.0132 28.6353 26.1685 28.2949 27.1546 27.6573C28.1408 27.0197 28.9147 26.1128 29.3805 25.0489L37.9441 5.35303H34.8646L26.7892 23.9445Z" fill="#282828"/>
<path d="M27.4425 15.8762L22.5614 5.38116H19.4819L25.9064 19.4496L27.4425 15.8762Z" fill="#282828"/>
</svg>
