<svg width="132" height="25" viewBox="0 0 132 25" fill="none" xmlns="http://www.w3.org/2000/svg">
<path d="M2.90848 11.3956V17.1437H6.92162C10.1587 17.1437 12.2911 15.8935 12.2911 12.9045C12.2911 9.91549 10.1237 8.59344 6.92162 8.59344H0V5.89905H6.73284C11.8856 5.89905 15.1576 8.39226 15.1576 12.9332C15.1576 17.4742 11.8856 19.9243 6.69789 19.9243H2.90848V24.5802H0V11.3956H2.90848Z" fill="#282828"/>
<path d="M33.8179 15.2395C33.8069 13.8929 33.4085 12.5797 32.6729 11.4653C31.9373 10.3508 30.8974 9.4849 29.684 8.97644C28.4707 8.46798 27.1381 8.33972 25.8539 8.60781C24.5698 8.8759 23.3915 9.52835 22.4674 10.4831C21.5432 11.4378 20.9145 12.6521 20.6604 13.9731C20.4062 15.2942 20.538 16.663 21.0391 17.9073C21.5402 19.1516 22.3883 20.2157 23.4765 20.9658C24.5648 21.7159 25.8446 22.1184 27.155 22.1227C28.0153 22.138 28.8701 21.9789 29.6706 21.6545C30.4711 21.3302 31.2016 20.847 31.8203 20.2325C32.4391 19.6179 32.9339 18.8842 33.2767 18.0731C33.6194 17.262 33.8034 16.3895 33.8179 15.5053C33.8249 15.4168 33.8249 15.3279 33.8179 15.2395ZM17.6255 15.2395C17.6145 13.2983 18.1638 11.3974 19.204 9.77714C20.2442 8.15684 21.7286 6.88993 23.4695 6.1366C25.2103 5.38327 27.1294 5.17737 28.9841 5.54492C30.8389 5.91248 32.5459 6.83698 33.8893 8.20153C35.2328 9.56608 36.1523 11.3094 36.5316 13.211C36.911 15.1126 36.7331 17.0871 36.0205 18.8849C35.3079 20.6826 34.0926 22.2228 32.5283 23.3107C30.9639 24.3986 29.1207 24.9854 27.2319 24.9968H27.155C24.6418 25.0101 22.2263 23.9974 20.4393 22.1813C18.6524 20.3651 17.6403 17.8941 17.6255 15.3113V15.2395Z" fill="#282828"/>
<path d="M40.4388 5.899H43.2355V9.49152C44.417 7.18512 46.6264 5.82715 49.6817 5.82715V8.77302C46.4026 8.70117 43.2355 10.5908 43.2355 15.6994V24.5873H40.4388V5.899Z" fill="#282828"/>
<path d="M55.4219 0.380798V5.89892H60.9801V8.77294H55.4219V18.8392C55.4219 21.9359 57.5193 22.7694 61.1619 21.9V24.5441C56.0441 25.6434 52.6252 23.7538 52.6252 19.0979V0.416724L55.4219 0.380798Z" fill="#282828"/>
<path d="M65.0629 5.89893H67.8595V24.5801H65.0629V5.89893ZM64.986 0H67.9294V3.02491H64.986V0Z" fill="#282828"/>
<path d="M72.9005 5.89897H75.6971V8.58618C76.4307 7.59244 77.3841 6.79257 78.4783 6.2528C79.5725 5.71303 80.7761 5.44888 81.9895 5.48224C86.478 5.48224 89.3865 8.39937 89.3865 13.084V24.5801H86.5899V13.4217C86.5899 10.1741 84.7511 8.2413 81.549 8.2413C80.0337 8.19482 78.5623 8.76777 77.4574 9.83452C76.3526 10.9013 75.7044 12.3747 75.6551 13.9319C75.6551 14.0827 75.6551 14.2264 75.6551 14.3701V24.5873H72.8585L72.9005 5.89897Z" fill="#282828"/>
<path d="M109.11 15.2394C109.164 13.4654 108.533 11.7413 107.354 10.4446C106.174 9.14779 104.543 8.38396 102.817 8.32024H102.412C101.078 8.31882 99.7747 8.72383 98.6654 9.48405C97.5562 10.2443 96.6912 11.3255 96.18 12.591C95.6688 13.8565 95.5343 15.2494 95.7936 16.5935C96.0529 17.9375 96.6942 19.1724 97.6365 20.1418C98.5788 21.1112 99.7798 21.7716 101.087 22.0394C102.395 22.3072 103.75 22.1705 104.982 21.6465C106.214 21.1224 107.267 20.2347 108.008 19.0955C108.749 17.9563 109.145 16.6168 109.145 15.2466L109.11 15.2394ZM92.7705 15.2466C92.7629 12.6818 93.7404 10.2176 95.4907 8.38922C97.241 6.56089 99.6226 5.5162 102.118 5.48214C103.468 5.44792 104.806 5.73799 106.027 6.32926C107.248 6.92053 108.318 7.79665 109.152 8.88786V5.89888H111.948V24.58H109.152V21.5982C108.319 22.6898 107.249 23.5658 106.028 24.1559C104.806 24.7461 103.467 25.0341 102.118 24.9967C99.6172 24.974 97.2266 23.935 95.4686 22.1068C93.7106 20.2786 92.728 17.8097 92.7355 15.2394" fill="#282828"/>
<path d="M117.024 5.899H119.821V9.49152C120.995 7.18512 123.205 5.82715 126.26 5.82715V8.77302C122.981 8.70117 119.821 10.5908 119.821 15.6994V24.5873H117.024V5.899Z" fill="#282828"/>
<path d="M129.126 5.89893H131.923V24.5801H129.126V5.89893ZM129.057 0H132V3.02491H129.057V0Z" fill="#282828"/>
</svg>
